<?xml version="1.0" encoding="UTF-8"?>
<svg id="Layer_2" data-name="Layer 2" xmlns="http://www.w3.org/2000/svg" viewBox="0 0 102 32">
  <defs>
    <style>
      .cls-1 {
        fill: #ff385c;
      }
    </style>
  </defs>
  <g id="Layer_1-2" data-name="Layer 1">
    <g>
      <path class="cls-1" d="M29.39,22.71c-.14-.4-.31-.79-.47-1.15-.25-.56-.5-1.11-.75-1.65l-.02-.04c-2.22-4.81-4.6-9.68-7.08-14.48l-.11-.2c-.25-.49-.51-1-.78-1.5-.32-.63-.7-1.22-1.15-1.77-.5-.6-1.13-1.08-1.84-1.41C16.48.17,15.7,0,14.92,0c-.78,0-1.56.17-2.27.5-.71.33-1.34.81-1.84,1.41-.45.55-.83,1.14-1.15,1.77-.27.5-.53,1.01-.79,1.51l-.1.19c-2.48,4.8-4.86,9.67-7.08,14.48l-.03.07c-.24.53-.5,1.08-.74,1.62-.16.36-.33.75-.47,1.15-.41,1.1-.54,2.28-.38,3.45.17,1.18.65,2.29,1.38,3.22.73.94,1.7,1.66,2.8,2.11.83.34,1.72.51,2.62.51.28,0,.56-.02.84-.05,1.14-.14,2.23-.51,3.22-1.09,1.3-.73,2.58-1.8,3.99-3.33,1.4,1.53,2.69,2.6,3.99,3.33.99.57,2.09.94,3.22,1.09.28.03.56.05.84.05.9,0,1.79-.17,2.62-.51,1.1-.45,2.07-1.18,2.8-2.11.73-.94,1.21-2.05,1.38-3.22.16-1.16.03-2.35-.38-3.45ZM14.92,24.38c-1.74-2.2-2.85-4.24-3.24-5.96-.16-.64-.2-1.31-.11-1.96.07-.48.24-.94.52-1.34.33-.43.76-.78,1.26-1.03.49-.24,1.03-.37,1.58-.37.55,0,1.09.13,1.58.37.49.24.92.59,1.26,1.03.27.4.45.86.52,1.34.09.66.05,1.32-.11,1.96-.39,1.71-1.5,3.76-3.24,5.95ZM27.74,25.87c-.12.82-.45,1.6-.96,2.25-.51.65-1.19,1.16-1.96,1.48-.78.31-1.62.42-2.46.32-.87-.11-1.7-.4-2.45-.84-1.16-.65-2.33-1.65-3.65-3.11,2.1-2.59,3.41-4.97,3.89-7.09.22-.89.27-1.82.14-2.73-.11-.78-.41-1.53-.85-2.19-.52-.71-1.2-1.28-1.99-1.68-.79-.4-1.65-.6-2.53-.6s-1.75.21-2.53.6c-.79.4-1.47.97-1.99,1.68-.45.66-.74,1.4-.85,2.19-.13.91-.08,1.84.14,2.73.48,2.12,1.79,4.51,3.89,7.1-1.32,1.46-2.49,2.46-3.65,3.11-.75.44-1.59.73-2.45.84-.83.1-1.68,0-2.46-.32-.77-.31-1.45-.82-1.96-1.48-.51-.65-.84-1.43-.96-2.25-.11-.84-.02-1.69.28-2.47.11-.32.25-.64.41-1.01.23-.53.48-1.07.72-1.59l.03-.07c2.21-4.78,4.57-9.62,7.04-14.4l.1-.19c.25-.49.51-.99.77-1.48.25-.5.55-.97.9-1.41.31-.38.7-.68,1.14-.89.44-.21.92-.32,1.41-.32.49,0,.97.11,1.41.31.44.21.83.51,1.14.88.35.44.65.91.9,1.41.26.48.52.98.77,1.46l.11.2c2.46,4.77,4.83,9.62,7.04,14.4l.02.04c.25.53.5,1.08.74,1.62.17.38.3.69.41,1.01.3.79.4,1.64.28,2.47Z"/>
      <path class="cls-1" d="M41.68,24.12c-.8,0-1.53-.16-2.21-.48-.67-.32-1.25-.77-1.76-1.35-.51-.58-.89-1.25-1.18-1.99-.29-.77-.42-1.6-.42-2.5s.16-1.76.45-2.53c.29-.77.7-1.44,1.21-2.05.51-.58,1.12-1.06,1.82-1.38.7-.32,1.44-.48,2.27-.48s1.5.16,2.14.51c.64.32,1.15.8,1.57,1.41l.1-1.57h2.94v12.08h-2.94l-.1-1.76c-.42.64-.96,1.15-1.66,1.54-.64.35-1.41.54-2.24.54ZM42.45,21.24c.58,0,1.09-.16,1.57-.45.45-.32.8-.74,1.09-1.25.26-.51.38-1.12.38-1.79s-.13-1.28-.38-1.79-.64-.93-1.09-1.25c-.45-.32-.99-.45-1.57-.45s-1.09.16-1.57.45c-.45.32-.8.74-1.09,1.25-.26.51-.38,1.12-.38,1.79s.13,1.28.38,1.79c.26.51.64.93,1.09,1.25.48.29.99.45,1.57.45ZM53.64,8.46c0,.35-.06.67-.22.93-.16.26-.38.48-.67.64-.29.16-.61.22-.93.22s-.64-.06-.93-.22c-.29-.16-.51-.38-.67-.64-.16-.29-.22-.58-.22-.93s.06-.67.22-.93c.16-.29.38-.48.67-.64s.61-.22.93-.22.64.06.93.22c.29.16.51.38.67.64.13.26.22.54.22.93ZM50.22,23.77v-12.08h3.2v12.08h-3.2ZM61.95,14.86v.03c-.16-.06-.35-.1-.51-.13-.19-.03-.35-.03-.54-.03-.9,0-1.57.26-2.01.8-.48.54-.7,1.31-.7,2.31v5.93h-3.2v-12.08h2.94l.1,1.83c.32-.64.7-1.12,1.25-1.47.51-.35,1.12-.51,1.82-.51.22,0,.45.03.64.06.1.03.16.03.22.06v3.2ZM63.23,23.77V6.73h3.2v6.5c.45-.58.96-1.03,1.6-1.38.64-.32,1.34-.51,2.14-.51s1.53.16,2.21.48c.67.32,1.25.77,1.76,1.35.51.58.89,1.25,1.18,1.99.29.77.42,1.6.42,2.5s-.16,1.76-.45,2.53c-.29.77-.7,1.44-1.21,2.05-.51.58-1.12,1.06-1.82,1.38-.7.32-1.44.48-2.27.48s-1.5-.16-2.14-.51c-.64-.32-1.15-.8-1.57-1.41l-.1,1.57-2.94.03ZM69.4,21.24c.58,0,1.09-.16,1.57-.45.45-.32.8-.74,1.09-1.25.26-.51.38-1.12.38-1.79s-.13-1.28-.38-1.79c-.29-.51-.64-.93-1.09-1.25-.45-.32-.99-.45-1.57-.45s-1.09.16-1.57.45c-.45.32-.8.74-1.09,1.25-.26.51-.38,1.12-.38,1.79s.13,1.28.38,1.79c.26.51.64.93,1.09,1.25.48.29.99.45,1.57.45ZM76.94,23.77v-12.08h2.94l.1,1.57c.35-.58.83-1.03,1.44-1.38.61-.35,1.31-.51,2.11-.51.9,0,1.66.22,2.3.64.67.42,1.18,1.02,1.53,1.79.35.77.54,1.7.54,2.75v7.24h-3.2v-6.82c0-.83-.19-1.51-.58-1.99-.38-.48-.89-.74-1.57-.74-.48,0-.89.1-1.28.32-.35.22-.64.51-.86.93-.22.38-.32.86-.32,1.35v6.92h-3.16ZM89.5,23.77V6.73h3.2v6.5c.45-.58.96-1.03,1.6-1.38.64-.32,1.34-.51,2.14-.51s1.53.16,2.21.48c.67.32,1.25.77,1.76,1.35.51.58.89,1.25,1.18,1.99.29.77.42,1.6.42,2.5s-.16,1.76-.45,2.53c-.29.77-.7,1.44-1.22,2.05-.51.58-1.12,1.06-1.82,1.38-.7.32-1.44.48-2.27.48s-1.5-.16-2.14-.51c-.64-.32-1.15-.8-1.57-1.41l-.1,1.57-2.94.03ZM95.7,21.24c.58,0,1.09-.16,1.57-.45.45-.32.8-.74,1.09-1.25.26-.51.38-1.12.38-1.79s-.13-1.28-.38-1.79-.64-.93-1.09-1.25c-.45-.32-.99-.45-1.57-.45s-1.09.16-1.57.45c-.45.32-.8.74-1.09,1.25-.29.51-.38,1.12-.38,1.79s.13,1.28.38,1.79c.26.51.64.93,1.09,1.25.48.29.96.45,1.57.45Z"/>
    </g>
  </g>
</svg>