<?xml version="1.0" encoding="UTF-8"?>
<svg id="Layer_2" data-name="Layer 2" xmlns="http://www.w3.org/2000/svg" viewBox="0 0 1920 1080">
  <defs>
    <style>
      .cls-1 {
        fill: #0f2d37;
        fill-rule: evenodd;
      }

      .cls-2 {
        fill: none;
        stroke: #0f2d37;
        stroke-width: 2px;
      }
    </style>
  </defs>
  <g id="arrowSlimView">
    <g id="soccerField">
      <path class="cls-2" d="M3.24,2.97h1913.51v1074.07H3.24V2.97ZM960,1080V0"/>
      <path class="cls-2" d="M1916.76,863.41h-308.11V216.59h308.11"/>
      <path class="cls-2" d="M1920,691.32h-107.03v-302.64h107.03M0,691.32h103.78v-302.64H0"/>
      <path class="cls-2" d="M0,863.41h308.11V216.59H0"/>
      <path class="cls-2" d="M960,391.65c89.56,0,162.16,66.42,162.16,148.35s-72.6,148.35-162.16,148.35-162.16-66.42-162.16-148.35,72.6-148.35,162.16-148.35Z"/>
      <path class="cls-2" d="M308.11,421.32c41.14,25.66,68.11,68.58,68.11,117.19s-26.96,91.54-68.11,117.2M1608.65,421.32c-41.14,25.66-68.11,68.58-68.11,117.19s26.96,91.54,68.11,117.2M1920,26.7c-16.12,0-29.19-11.96-29.19-26.7M1920,1053.3c-16.12,0-29.19,11.96-29.19,26.7M0,26.7c16.12,0,29.19-11.96,29.19-26.7M0,1053.3c16.12,0,29.19,11.96,29.19,26.7"/>
      <path class="cls-1" d="M960,531.1c5.37.13,9.62,4.21,9.48,9.13-.13,4.74-4.3,8.55-9.48,8.67-5.37,0-9.73-3.99-9.73-8.9s4.36-8.9,9.73-8.9Z"/>
    </g>
  </g>
</svg>