<?xml version="1.0" encoding="UTF-8"?>
<svg id="Layer_1" xmlns="http://www.w3.org/2000/svg" version="1.1" viewBox="0 0 102 32">
  <!-- Generator: Adobe Illustrator 29.0.1, SVG Export Plug-In . SVG Version: 2.1.0 Build 192)  -->
  <defs>
    <style>
      .st0 {
        fill: #ff385c;
      }
    </style>
  </defs>
  <path class="st0" d="M29.4,22.7c-.1-.4-.3-.8-.5-1.2-.2-.6-.5-1.1-.8-1.6h0c-2.2-4.8-4.6-9.7-7.1-14.5v-.2c-.4-.5-.6-1-.9-1.5-.3-.6-.7-1.2-1.2-1.8-.5-.6-1.1-1.1-1.8-1.4C16.5.2,15.7,0,14.9,0c-.8,0-1.6.2-2.3.5-.7.3-1.3.8-1.8,1.4-.4.5-.8,1.1-1.2,1.8-.3.5-.5,1-.8,1.5v.2c-2.6,4.8-5,9.7-7.2,14.5h0c-.2.6-.5,1.1-.7,1.7-.2.4-.3.8-.5,1.2-.4,1.1-.5,2.3-.4,3.4.2,1.2.6,2.3,1.4,3.2.7.9,1.7,1.7,2.8,2.1.8.3,1.7.5,2.6.5.3,0,.6,0,.8,0,1.1-.1,2.2-.5,3.2-1.1,1.3-.7,2.6-1.8,4-3.3,1.4,1.5,2.7,2.6,4,3.3,1,.6,2.1.9,3.2,1.1.3,0,.6,0,.8,0,.9,0,1.8-.2,2.6-.5,1.1-.4,2.1-1.2,2.8-2.1.7-.9,1.2-2,1.4-3.2.2-1.2,0-2.3-.4-3.4ZM14.9,24.4c-1.7-2.2-2.8-4.2-3.2-6-.2-.6-.2-1.3-.1-2,0-.5.2-.9.5-1.3.3-.4.8-.8,1.3-1,.5-.2,1-.4,1.6-.4.5,0,1.1.1,1.6.4.5.2.9.6,1.3,1,.3.4.4.9.5,1.3,0,.7,0,1.3-.1,2-.4,1.7-1.5,3.8-3.2,6ZM27.7,25.9c-.1.8-.5,1.6-1,2.3-.5.7-1.2,1.2-2,1.5-.8.3-1.6.4-2.5.3-.9-.1-1.7-.4-2.5-.8-1.2-.6-2.3-1.6-3.6-3.1,2.1-2.6,3.4-5,3.9-7.1.2-.9.3-1.8.1-2.7-.1-.8-.4-1.5-.9-2.2-.5-.7-1.2-1.3-2-1.7-.8-.4-1.7-.6-2.5-.6s-1.7.2-2.5.6c-.8.4-1.5,1-2,1.7-.4.7-.7,1.4-.9,2.2-.1.9,0,1.8.1,2.7.5,2.1,1.8,4.5,3.9,7.1-1.3,1.5-2.5,2.5-3.6,3.1-.8.4-1.6.7-2.5.8-.8.1-1.7,0-2.5-.3-.8-.3-1.4-.8-2-1.5-.5-.7-.8-1.4-1-2.3-.1-.8,0-1.7.3-2.5.1-.3.2-.6.4-1,.2-.5.5-1.1.7-1.6h0c2.2-4.8,4.6-9.7,7-14.5v-.2c.3-.5.6-1,.9-1.5.3-.5.6-1,.9-1.4.3-.4.7-.7,1.1-.9.4-.2.9-.3,1.4-.3.5,0,1,.1,1.4.3.4.2.8.5,1.1.9.4.4.7.9.9,1.4.3.5.5,1,.8,1.5v.2c2.6,4.8,4.9,9.6,7.1,14.4h0c.2.6.5,1.1.7,1.7.2.4.3.7.4,1,.3.8.4,1.6.3,2.5Z"/>
  <path class="st0" d="M41.7,24.1c-.8,0-1.5-.2-2.2-.5-.7-.3-1.2-.8-1.8-1.3-.5-.6-.9-1.2-1.2-2-.3-.8-.4-1.6-.4-2.5s.2-1.8.4-2.5c.3-.8.7-1.4,1.2-2.1.5-.6,1.1-1.1,1.8-1.4.7-.3,1.4-.5,2.3-.5s1.5.2,2.1.5c.6.3,1.2.8,1.6,1.4v-1.6h3v12.1h-2.9v-1.8c-.5.6-1.1,1.2-1.8,1.5-.6.4-1.4.5-2.2.5ZM42.5,21.2c.6,0,1.1-.2,1.6-.4.4-.3.8-.7,1.1-1.2.3-.5.4-1.1.4-1.8s-.1-1.3-.4-1.8-.6-.9-1.1-1.2c-.4-.3-1-.4-1.6-.4s-1.1.2-1.6.4c-.4.3-.8.7-1.1,1.2-.3.5-.4,1.1-.4,1.8s.1,1.3.4,1.8c.3.5.6.9,1.1,1.2.5.3,1,.4,1.6.4ZM53.6,8.5c0,.4,0,.7-.2.9-.2.3-.4.5-.7.6-.3.2-.6.2-.9.2s-.6,0-.9-.2c-.3-.2-.5-.4-.7-.6-.2-.3-.2-.6-.2-.9s0-.7.2-.9c.2-.3.4-.5.7-.6s.6-.2.9-.2.6,0,.9.2c.3.2.5.4.7.6.1.3.2.5.2.9ZM50.2,23.8v-12.1h3.2v12.1h-3.2ZM61.9,14.9h0c-.2,0-.4,0-.5,0-.2,0-.4,0-.5,0-.9,0-1.6.3-2,.8-.5.5-.7,1.3-.7,2.3v5.9h-3.2v-12.1h2.9v1.8c.4-.6.8-1.1,1.3-1.5.5-.4,1.1-.5,1.8-.5s.4,0,.6,0c0,0,.2,0,.2,0v3.2ZM63.2,23.8V6.7h3.2v6.5c.4-.6,1-1,1.6-1.4.6-.3,1.3-.5,2.1-.5s1.5.2,2.2.5c.7.3,1.2.8,1.8,1.3.5.6.9,1.2,1.2,2,.3.8.4,1.6.4,2.5s-.2,1.8-.4,2.5c-.3.8-.7,1.4-1.2,2.1-.5.6-1.1,1.1-1.8,1.4-.7.3-1.4.5-2.3.5s-1.5-.2-2.1-.5c-.6-.3-1.2-.8-1.6-1.4v1.6c0,0-3,0-3,0ZM69.4,21.2c.6,0,1.1-.2,1.6-.4.4-.3.8-.7,1.1-1.2.3-.5.4-1.1.4-1.8s-.1-1.3-.4-1.8c-.3-.5-.6-.9-1.1-1.2-.4-.3-1-.4-1.6-.4s-1.1.2-1.6.4c-.4.3-.8.7-1.1,1.2-.3.5-.4,1.1-.4,1.8s.1,1.3.4,1.8c.3.5.6.9,1.1,1.2.5.3,1,.4,1.6.4ZM76.9,23.8v-12.1h2.9v1.6c.4-.6.9-1,1.5-1.4.6-.4,1.3-.5,2.1-.5s1.7.2,2.3.6c.7.4,1.2,1,1.5,1.8.4.8.5,1.7.5,2.8v7.2h-3.2v-6.8c0-.8-.2-1.5-.6-2-.4-.5-.9-.7-1.6-.7s-.9,0-1.3.3c-.4.2-.6.5-.9.9-.2.4-.3.9-.3,1.3v6.9h-3.2ZM89.5,23.8V6.7h3.2v6.5c.4-.6,1-1,1.6-1.4.6-.3,1.3-.5,2.1-.5s1.5.2,2.2.5c.7.3,1.2.8,1.8,1.3.5.6.9,1.2,1.2,2,.3.8.4,1.6.4,2.5s-.2,1.8-.4,2.5c-.3.8-.7,1.4-1.2,2.1-.5.6-1.1,1.1-1.8,1.4-.7.3-1.4.5-2.3.5s-1.5-.2-2.1-.5c-.6-.3-1.2-.8-1.6-1.4v1.6c0,0-3,0-3,0ZM95.7,21.2c.6,0,1.1-.2,1.6-.4.4-.3.8-.7,1.1-1.2.3-.5.4-1.1.4-1.8s-.1-1.3-.4-1.8-.6-.9-1.1-1.2c-.4-.3-1-.4-1.6-.4s-1.1.2-1.6.4c-.4.3-.8.7-1.1,1.2-.3.5-.4,1.1-.4,1.8s.1,1.3.4,1.8c.3.5.6.9,1.1,1.2.5.3,1,.4,1.6.4Z"/>
</svg>